<?xml version="1.0" encoding="UTF-8"?>
<svg width="1088.1px" height="1100.01586px" viewBox="0 0 1088.1 1100.01586" version="1.1" xmlns="http://www.w3.org/2000/svg" xmlns:xlink="http://www.w3.org/1999/xlink">
    <title>2056977</title>
    <g id="页面-1" stroke="none" stroke-width="1" fill="none" fill-rule="evenodd">
        <g id="2056977" transform="translate(-0.000000, 0.000000)" fill="#FFFFFF" fill-rule="nonzero">
            <g id="编组" transform="translate(544.050000, 550.007932) scale(-1, 1) rotate(-180.000000) translate(-544.050000, -550.007932) translate(0.000000, 0.000000)">
                <path d="M1052,1099.31586 C1049.5,1099.11586 1040.5,1098.31586 1032,1097.41586 C860.5,1080.01586 722.9,977.615865 637,803.515865 C612.9,754.715865 591.6,698.815865 577.5,647.115865 C571.5,625.415865 569.9,620.815865 568.5,622.115865 C568,622.615865 560.2,673.315865 555.8,704.515865 C552.8,725.415865 552.6,779.615865 555.3,799.815865 C556.3,807.215865 556.9,813.415865 556.7,813.615865 C555.9,814.415865 551.1,787.315865 549.4,773.015865 C548.4,764.315865 548,753.715865 548.2,743.015865 L548.5,726.515865 L544.2,726.215865 C540.6,725.915865 539.8,726.215865 539.1,728.215865 L538.1,730.515865 L538.1,728.015865 C538,726.615865 536.4,723.215865 534.4,720.515865 C526.3,709.315865 524.8,700.415865 528.4,683.815865 C530.8,672.415865 530.5,668.815865 525,645.515865 C522.3,633.815865 520,624.015865 520,623.615865 C520,623.315865 519.4,623.015865 518.6,623.015865 C517.6,623.015865 516.5,625.915865 515,632.315865 C511.6,646.915865 504.3,671.915865 498.3,689.415865 C478.4,747.415865 440.3,825.815865 408.3,874.515865 C354.8,955.915865 287.9,1017.11586 211.5,1054.51586 C153.2,1083.01586 93.7,1097.21586 25.8,1098.71586 L0,1099.31586 L0,1091.41586 C0,1079.21586 2.8,1039.21586 5.5,1012.31586 C24,830.315865 79.3,676.115865 160,581.415865 C172.6,566.815865 192.6,547.115865 205.7,536.515865 C230.5,516.515865 263.2,497.715865 289.5,488.215865 C312.9,479.715865 340.3,474.315865 364.5,473.415865 C382.2,472.815865 387.5,472.115865 386.3,470.915865 C385.7,470.315865 376.1,467.515865 364.8,464.615865 C338.1,457.615865 323.8,451.315865 302,436.715865 C241.9,396.415865 209.1,332.415865 190.1,218.515865 C185.8,192.415865 184.1,176.615865 183.1,154.315865 C182.2,132.115865 182.8,118.815865 186.4,75.5158648 C188.6,49.0158648 194.4,1.31586475 195.6,0.115864753 C197.3,-1.58413525 235.3,15.8158648 253.1,26.5158648 C338.9,78.3158648 413.8,179.415865 471.5,321.515865 C483.1,350.015865 502.3,406.915865 513,444.515865 C519,465.715865 520.1,469.015865 520.8,469.015865 C521.2,469.015865 521.5,453.115865 521.5,433.815865 C521.5,396.715865 522.1,387.415865 526.6,358.015865 C529.9,336.915865 532.8,323.515865 539.6,298.015865 C546.8,271.315865 546.1,273.415865 547,275.115865 C547.9,276.815865 554.6,315.415865 559.5,347.715865 C563.6,374.715865 566.5,413.515865 566.5,441.315865 C566.5,451.615865 566.8,460.015865 567.1,460.015865 C568.2,460.015865 569.6,455.715865 577.4,428.915865 C598.4,357.715865 618.2,306.815865 645.7,254.015865 C703.5,143.115865 759.8,77.7158648 839.9,28.3158648 C853.6,19.8158648 892.8,-0.484135247 893.7,0.315864753 C893.9,0.615864753 894.6,6.81586475 895.1,14.2158648 C895.6,21.5158648 896.9,37.6158648 898,50.0158648 C901.7,91.9158648 902,96.1158648 903,117.715865 C904.1,142.115865 903.2,165.915865 900.1,190.715865 C899,199.415865 897.2,214.415865 896,224.015865 C889.8,275.315865 869.1,334.615865 843.9,373.115865 C820,409.715865 792,433.915865 748.8,455.615865 C732.8,463.615865 726,466.015865 706.7,470.415865 C701.7,471.615865 704.8,472.715865 714.7,473.415865 C731.5,474.615865 762.1,479.015865 772,481.615865 C815.4,493.315865 845.4,507.515865 873.5,529.915865 C939.2,582.215865 988.1,656.215865 1024.9,758.715865 C1042.2,807.115865 1053.4,853.915865 1072.5,957.515865 C1080.3,999.715865 1085.2,1042.21586 1087.5,1087.81586 L1088.1,1100.01586 L1072.3,1099.81586 C1063.6,1099.71586 1054.5,1099.51586 1052,1099.31586 Z M1051.8,1046.11586 C1052.4,1037.51586 1046.8,997.415865 1041,969.515865 C1025.1,892.915865 999.5,830.115865 969.3,793.815865 C952.1,773.215865 930.8,761.715865 907,760.315865 C865.4,757.815865 829.5,790.115865 818.8,839.515865 C816.9,848.415865 817.2,871.715865 819.4,882.015865 C827.7,922.015865 852.6,962.315865 886.5,990.615865 C907.9,1008.41586 947.5,1029.01586 976.8,1037.61586 C993.9,1042.61586 1041.5,1051.21586 1049,1050.71586 C1051.2,1050.51586 1051.5,1050.01586 1051.8,1046.11586 Z M69.2,1047.01586 C113.3,1040.51586 157.7,1022.21586 192,996.415865 C218.7,976.315865 239,951.815865 253,922.815865 C273.8,879.815865 275.6,841.015865 258.5,807.015865 C253.4,796.815865 249.8,791.715865 242.1,783.615865 C225.9,766.715865 206.7,758.615865 183,758.515865 C168.7,758.515865 159.8,760.615865 148.1,766.515865 C100.2,790.615865 58.3,886.915865 40.6,1013.51586 C37.5,1035.61586 36.5,1046.31586 37.4,1048.61586 C38,1050.11586 39.1,1050.21586 47.3,1049.51586 C52.3,1049.11586 62.2,1048.01586 69.2,1047.01586 Z M799,944.615865 C804.7,932.815865 807.6,914.115865 806.7,895.615865 C804,843.015865 783.4,811.615865 730.9,780.315865 C723.5,775.915865 709.9,767.815865 700.5,762.215865 C672.8,745.815865 655.5,732.715865 640.2,716.515865 C628.2,703.815865 622.7,695.915865 614.2,679.315865 C610,670.915865 606.1,664.215865 605.5,664.31476 C603.6,665.015865 603.9,679.815865 606,691.815865 C610.8,718.715865 622.3,756.015865 625.9,756.015865 C626.4,756.015865 627.8,753.315865 629,750.015865 C630.3,746.615865 631.4,744.115865 631.6,744.315865 C631.8,744.515865 633.3,750.715865 635,758.115865 C639.4,778.515865 645.8,794.715865 655,809.015865 C660.5,817.515865 667.8,826.015865 669.6,826.015865 C671.4,826.015865 671.4,826.115865 668.6,815.015865 C666.1,805.215865 664.4,794.015865 665.3,794.015865 C665.6,794.015865 668.7,799.815865 672.3,806.815865 C686.3,834.615865 701.7,856.015865 712.9,863.215865 C717.6,866.115865 721.6,867.015865 720.7,864.815865 C715.3,852.515865 710.7,835.915865 712.3,834.415865 C712.6,834.115865 713.6,835.315865 714.6,837.215865 C717.8,843.515865 723.4,850.315865 729.8,855.615865 C737.2,861.715865 755.8,871.615865 757.2,870.215865 C757.8,869.615865 756.6,865.515865 754,859.515865 C751.7,854.215865 750.1,849.615865 750.3,849.415865 C750.5,849.215865 753.5,852.215865 756.8,856.215865 C760.2,860.215865 766.4,867.315865 770.5,872.015865 C788.6,892.315865 795,909.015865 795,936.115865 C795,943.215865 795.4,949.015865 795.9,949.015865 C796.4,949.015865 797.8,947.015865 799,944.615865 Z M293.9,909.515865 C295.9,901.915865 304.1,885.415865 310.5,876.515865 C316.4,868.215865 330.7,851.415865 335.5,847.015865 L338.3,844.515865 L337.6,847.915865 C337.3,849.715865 335.1,855.515865 332.9,860.715865 C330.6,865.815865 329,870.415865 329.4,870.715865 C330.4,871.715865 335.1,869.715865 343.9,864.815865 C353.4,859.415865 367.3,845.915865 371.9,837.515865 L375.1,831.515865 L374.6,838.015865 C374.3,841.615865 372.9,848.315865 371.5,853.015865 C366.7,868.415865 366.9,869.115865 374,863.915865 C389.9,852.415865 407.2,827.315865 420.8,796.015865 C421.8,793.615865 421.9,793.615865 421.9,797.015865 C422,798.915865 420.9,805.115865 419.5,810.815865 C418.1,816.515865 417,821.815865 417,822.615865 C417,829.915865 434.2,808.015865 443,789.515865 C445.1,785.115865 448.1,777.215865 449.8,772.015865 C452.4,763.515865 453.3,759.315865 455.5,745.615865 C456.3,741.015865 457.2,741.715865 459.5,748.815865 C460.4,751.615865 461.7,754.015865 462.4,754.015865 C463.6,754.015865 475.5,717.815865 478.9,703.515865 C482.2,690.015865 484.8,667.115865 483.5,663.115865 C482.6,660.115865 481.4,661.215865 479.4,667.315865 C474,683.715865 463.2,699.715865 446.4,716.015865 C432.8,729.215865 418.1,740.215865 392.5,756.515865 C350.3,783.315865 343.6,787.715865 333.2,795.515865 C301.3,819.315865 285.6,845.815865 281.8,882.115865 C279.9,899.715865 283.8,929.015865 289.7,941.715865 L291.4,945.515865 L292.1,930.015865 C292.4,921.515865 293.2,912.315865 293.9,909.515865 Z M356.5,747.515865 C393.2,741.715865 427.4,721.515865 452.3,690.715865 C463.4,677.015865 470.3,666.215865 478.9,648.915865 C488,630.615865 493.7,615.315865 499.1,594.215865 C503.3,577.815865 504.1,571.415865 501.6,574.015865 C500.8,574.815865 496.4,583.715865 491.7,593.715865 C487,603.715865 480.5,615.915865 477.1,620.715865 C453,655.815865 423.7,673.015865 395,669.015865 C380.6,667.015865 374.8,664.315865 353.4,649.615865 C343,642.515865 342.5,642.715865 342.6,654.315865 C342.7,661.015865 343.4,664.515865 346.4,673.415865 C348.5,679.315865 349.9,684.415865 349.7,684.615865 C348.9,685.415865 337.5,676.315865 331.9,670.415865 C321.3,659.115865 313.4,645.315865 308.2,629.015865 C305,619.015865 302,603.315865 302,596.815865 C302,591.615865 299.6,590.715865 296.4,594.615865 C292.9,598.815865 289.3,606.415865 285,618.615865 C280.9,630.515865 280.7,630.515865 279,617.015865 C276.1,593.415865 279.5,571.215865 288.9,551.515865 C298.9,530.615865 314.7,515.115865 335,506.315865 C339.1,504.515865 342.6,502.415865 342.8,501.615865 C343.7,497.315865 327,498.415865 311,503.515865 C290.5,510.115865 277.8,518.115865 262.9,533.815865 C227.7,570.815865 218.2,621.415865 236.7,674.315865 C245.2,698.715865 257.4,716.015865 276,729.915865 C288.3,739.015865 296.8,742.815865 310.1,745.115865 C316.5,746.115865 323.5,747.715865 325.6,748.515865 C330.1,750.215865 341.6,749.815865 356.5,747.515865 Z M758.9,749.015865 C780,746.815865 800.6,739.215865 815.1,728.215865 C838.7,710.315865 854.5,681.315865 859.6,646.815865 C864.6,612.715865 852.5,565.315865 831.9,538.115865 C816.6,517.915865 793.5,505.015865 765.5,501.015865 C756.6,499.815865 743,499.715865 743,501.015865 C743,501.515865 746.8,503.715865 751.5,505.915865 C773.9,516.415865 791.8,533.915865 801.9,555.115865 C807.6,567.015865 809.2,573.615865 809.7,588.315865 C810.3,603.615865 807.4,631.015865 805.2,631.015865 C804.8,631.015865 803.6,627.715865 802.6,623.815865 C800.4,615.315865 793.5,596.515865 791.4,593.315865 C788.9,589.315865 787.2,590.515865 786.5,596.815865 C782.8,628.815865 771.5,654.715865 753.3,672.615865 C747.8,678.015865 738,685.315865 737.3,684.615865 C737.1,684.415865 738.7,676.315865 741,666.515865 C744.8,649.615865 745.7,644.015865 744.4,644.015865 C743.2,644.015865 739,646.615865 730.7,652.715865 C707.9,669.315865 690.4,674.115865 670.6,669.015865 C655.5,665.215865 641.4,656.315865 627.3,641.915865 C615,629.215865 606.7,617.115865 596.2,596.315865 C590.9,585.715865 586.2,577.015865 585.8,577.015865 C582.9,577.015865 589.8,605.815865 597.2,624.515865 C615.2,669.915865 647.1,709.515865 683.3,731.515865 C693.3,737.515865 719.9,746.615865 733,748.515865 C745.2,750.215865 746.8,750.215865 758.9,749.015865 Z M108.2,726.015865 C161.1,700.015865 198.1,693.815865 225.6,706.415865 C228.8,707.915865 231.7,708.715865 232.2,708.215865 C232.7,707.715865 230.8,702.615865 228.1,696.815865 C213.2,665.415865 206.1,629.415865 208.9,599.915865 C210.3,584.815865 214.2,568.115865 219.4,555.715865 C221.4,550.915865 223,546.515865 223,546.015865 C223,544.015865 219.3,545.115865 212.3,549.315865 C201.4,555.715865 191.6,564.415865 182.6,575.615865 C169.5,592.115865 160.6,608.015865 138.7,654.615865 C125.7,682.215865 121.8,688.915865 105.2,710.815865 C90.4,730.415865 88.1,734.015865 90.4,734.015865 C91.2,734.015865 99.2,730.415865 108.2,726.015865 Z M998,733.115865 C998,732.715865 996.3,730.315865 994.1,727.915865 C979.2,710.915865 960.3,678.815865 944.5,643.515865 C934,620.115865 923.6,600.015865 916.9,590.715865 C909.4,580.215865 893.1,564.215865 878.6,553.215865 C867.9,545.115865 865,543.715865 865,546.415865 C865,547.215865 867.3,554.015865 870.1,561.715865 C876.9,580.015865 878.7,587.615865 880.1,602.915865 C882.8,631.415865 877,659.115865 860.9,694.315865 C857.6,701.315865 855,707.615865 855,708.215865 C855,709.415865 855.6,709.215865 867.7,704.615865 C879.9,699.815865 888.5,698.715865 901.8,700.015865 C914.3,701.315865 934.2,706.215865 950,712.015865 C961.5,716.215865 986.8,728.015865 992.5,731.815865 C995.7,734.015865 998,734.515865 998,733.115865 Z M414,632.815865 C441.6,624.315865 470.4,594.915865 491.5,553.515865 C501.2,534.615865 510.7,508.315865 508.6,506.315865 C508.2,505.915865 503.5,510.215865 498.2,516.015865 C478,538.215865 467.9,546.215865 454.1,551.315865 C438.1,557.315865 429,556.915865 406.7,549.415865 C390.1,543.815865 383.2,542.715865 375.4,544.115865 C358.2,547.315865 347,561.415865 347,580.015865 C347,592.915865 353.5,609.115865 362.7,619.015865 C369.3,626.115865 370.9,627.115865 385.5,632.115865 C397.9,636.415865 401.9,636.415865 414,632.815865 Z M697.4,628.015865 C723.9,621.215865 738.3,600.915865 736.8,572.115865 C736,557.515865 731.5,548.515865 722.7,543.715865 C719.2,541.915865 717,541.515865 709,541.615865 C701.2,541.615865 696.8,542.315865 684,545.815865 C675.5,548.015865 664.9,550.215865 660.5,550.515865 C644.8,551.815865 622.8,546.515865 608.4,537.915865 C599.8,532.915865 587.8,521.115865 584.1,514.015865 C578.4,503.415865 577.6,505.015865 581.6,518.615865 C594.1,562.015865 618.8,599.615865 646.4,617.515865 C654.4,622.715865 659.4,624.715865 670,627.015865 C673,627.715865 676.2,628.615865 677,629.115865 C679.6,630.615865 689.4,630.115865 697.4,628.015865 Z M663.5,531.815865 C674.2,529.715865 682.6,528.715865 692.8,528.315865 C703.5,527.915865 707,527.415865 707,526.515865 C707,524.415865 697.1,516.315865 690,512.615865 C682.2,508.515865 667.7,503.815865 656,501.515865 C650.5,500.415865 638.6,499.515865 622,499.015865 C601.7,498.415865 595.4,497.815865 591.3,496.415865 C588.4,495.415865 585.7,495.015865 585.3,495.415865 C584.3,496.315865 588.6,504.215865 593.2,510.115865 C598.3,516.615865 607.3,522.815865 622.1,530.015865 L634.5,536.115865 L641.5,535.515865 C645.4,535.115865 655.3,533.515865 663.5,531.815865 Z M455.2,533.615865 C474.9,529.815865 489.9,519.615865 499.3,503.915865 C503.4,496.915865 504.1,493.415865 501.3,494.315865 C500.3,494.715865 496.8,495.915865 493.5,497.215865 C487.9,499.315865 485.9,499.415865 460.5,499.615865 C431,499.715865 425.7,500.415865 413.8,505.815865 C408.2,508.315865 388.4,520.115865 382.2,524.615865 C378.7,527.115865 380.8,527.915865 387.5,526.815865 C399.2,524.915865 420,527.415865 431.6,532.315865 C438.5,535.215865 444.9,535.615865 455.2,533.615865 Z M631.5,481.115865 C677.5,473.315865 709.2,456.215865 726.4,429.715865 C734.1,417.915865 743.9,397.915865 758,365.015865 C779.4,315.115865 785.9,303.815865 802.8,288.015865 C809,282.315865 813.6,277.215865 813.2,276.815865 C811,274.615865 775.9,289.915865 759.9,300.115865 C741.9,311.515865 724.3,325.615865 709.5,340.515865 C701.4,348.715865 694.4,358.615865 680,382.515865 C654.2,425.115865 632.7,453.215865 614.3,468.315865 C610.4,471.415865 603.5,475.615865 598.3,478.015865 C593.2,480.415865 589,482.715865 589,483.315865 C589,484.915865 617.8,483.415865 631.5,481.115865 Z M498,482.015865 C498,481.415865 497.2,480.715865 496.3,480.415865 C469.6,471.515865 445.8,445.015865 403.5,377.115865 C388.6,353.215865 382.6,345.415865 368.6,331.415865 C347.8,310.715865 324.9,295.415865 298.9,284.615865 C286.4,279.515865 274.3,275.715865 272.9,276.515865 C272.2,277.015865 274.1,279.615865 278.3,283.915865 C302.1,308.415865 314.5,328.815865 331.5,372.015865 C346.8,410.615865 355.9,427.015865 369.5,439.915865 C383.3,453.015865 398.8,462.515865 420.6,471.115865 C438.3,478.215865 462.9,482.715865 483.8,482.915865 C492.9,483.015865 498,482.615865 498,482.015865 Z M604.6,466.715865 C629.2,448.515865 647.5,418.015865 654,384.115865 C656.2,372.615865 656.3,375.115865 653.4,332.015865 C651.7,306.715865 652.4,287.615865 655.4,270.115865 C656.2,265.415865 656.7,261.215865 656.4,260.815865 C654,257.015865 639.6,281.115865 631,303.115865 C621.4,327.715865 618.2,342.515865 616.5,370.015865 C613.8,414.415865 607.7,444.715865 596.3,469.815865 C595.2,472.315865 598.9,470.915865 604.6,466.715865 Z M491,469.015865 C491,468.415865 489.7,465.415865 488.1,462.215865 C482.8,451.615865 478.4,436.215865 476.1,420.015865 C475.5,415.915865 474.3,401.415865 473.5,387.815865 C472.7,374.215865 471.3,359.215865 470.5,354.315865 C466.8,333.315865 458.2,305.915865 449.5,287.515865 C442.6,273.115865 432.2,258.315865 430.7,260.715865 C430.4,261.215865 430.8,264.215865 431.6,267.515865 C434.1,277.515865 434.4,299.315865 432.5,325.615865 C430.4,353.915865 430.9,375.015865 433.9,388.015865 C440.1,415.215865 451.4,433.515865 476.6,458.015865 C488.4,469.415865 491,471.315865 491,469.015865 Z M668.5,372.815865 C684.5,354.215865 702.4,313.715865 709,281.015865 C711.4,268.815865 712.5,260.115865 715,230.015865 C718.2,191.615865 720.3,181.415865 728.7,163.715865 C731.8,157.315865 734,151.715865 733.7,151.415865 C731.9,149.615865 711.4,167.115865 701.4,178.815865 C685,197.915865 675.7,216.715865 669.3,243.515865 L666.5,255.515865 L666.9,286.515865 C667.7,353.615865 667.6,359.015865 665.6,366.015865 C662,378.815865 662.4,379.815865 668.5,372.815865 Z M424,373.815865 C424,372.515865 422.6,366.815865 420.9,361.015865 L417.9,350.515865 L419,305.515865 C420.2,260.915865 420.2,260.315865 418.1,249.115865 C413.8,227.015865 404.7,203.815865 393.4,186.915865 C386.7,176.715865 372,161.815865 363,155.915865 C356.8,151.815865 352,149.815865 352,151.415865 C352,151.615865 353.5,155.015865 355.4,159.115865 C363,175.515865 366.7,191.615865 370,222.015865 C376.6,284.215865 381.2,303.015865 397.6,336.015865 C405.2,351.215865 421,376.015865 423.1,376.015865 C423.6,376.015865 424,375.015865 424,373.815865 Z M821.7,234.515865 C824.6,233.215865 828.5,230.915865 830.5,229.315865 C838.4,223.115865 848.4,206.715865 854.4,190.215865 C864.7,161.415865 872,110.215865 872,66.4158648 C872,53.3158648 871.8,52.0158648 870.2,52.0158648 C867.5,52.0158648 837.9,68.3158648 824,77.4158648 C770.7,112.515865 748.7,154.315865 762.5,194.315865 C765.9,204.215865 770.5,211.515865 778.5,219.615865 C784.3,225.415865 787.5,227.715865 796.8,232.315865 C809.6,238.715865 811.8,238.915865 821.7,234.515865 Z M281.4,235.515865 C311.2,227.715865 333.3,193.415865 329,161.815865 C327.1,148.215865 321.7,135.815865 311,120.815865 C303.6,110.515865 286.9,94.0158648 274.6,84.8158648 C259.2,73.4158648 219,50.4158648 216.3,51.4158648 C214.7,52.1158648 214.7,57.8158648 216,87.5158648 C218,129.315865 221.7,154.015865 230.2,180.015865 C237.7,203.215865 251.9,224.815865 265.7,234.015865 C271,237.415865 273.2,237.615865 281.4,235.515865 Z" id="形状"></path>
                <path d="M399.5,981.115865 C397.3,980.115865 394.6,978.315865 393.6,977.115865 C391.7,975.015865 391.7,975.015865 394.2,971.515865 C399.6,963.815865 411.8,956.115865 443.9,940.015865 C468.3,927.815865 473.3,924.515865 483.2,914.215865 C492,904.815865 498.2,896.215865 506.1,882.215865 C513.3,869.415865 512,873.615865 503.6,890.615865 C490.6,916.715865 477.5,934.615865 455.7,955.715865 C431.4,979.215865 413.2,987.415865 399.5,981.115865 Z" id="路径"></path>
                <path d="M669.5,981.115865 C659.4,977.515865 648.2,970.315865 634.2,958.615865 C610.1,938.315865 592.3,914.915865 579.8,886.815865 C577.2,880.915865 575,875.715865 575,875.315865 C575,874.915865 577,878.115865 579.3,882.515865 C592.1,906.415865 605,920.915865 624.5,933.615865 C636.2,941.115865 640.8,943.215865 657.5,948.515865 C675.1,954.115865 680.6,956.615865 686.7,962.315865 C692.6,967.715865 694,970.615865 693.3,975.915865 C692.8,979.615865 692.2,980.415865 689.4,981.615865 C684.8,983.515865 675.5,983.315865 669.5,981.115865 Z" id="路径"></path>
                <path d="M557.1,816.415865 C557.1,815.315865 557.4,815.015865 557.7,815.815865 C558,816.515865 557.9,817.415865 557.6,817.715865 C557.3,818.115865 557,817.515865 557.1,816.415865 Z" id="路径"></path>
                <path d="M531.1,804.415865 C531.1,803.315865 531.4,803.015865 531.7,803.815865 C532,804.515865 531.9,805.415865 531.6,805.715865 C531.3,806.115865 531,805.515865 531.1,804.415865 Z" id="路径"></path>
                <path d="M532.2,800.015865 C532.1,799.215865 533.2,790.615865 534.5,781.015865 C536.9,762.715865 537.7,761.615865 536,779.015865 C535,788.315865 532.2,803.515865 532.2,800.015865 Z" id="路径"></path>
            </g>
        </g>
    </g>
</svg>